<?xml version="1.0" standalone="no"?>
<!DOCTYPE svg PUBLIC "-//W3C//DTD SVG 20010904//EN"
 "http://www.w3.org/TR/2001/REC-SVG-20010904/DTD/svg10.dtd">
<svg version="1.0" xmlns="http://www.w3.org/2000/svg"
 width="174.000000pt" height="174.000000pt" viewBox="0 0 174.000000 174.000000"
 preserveAspectRatio="xMidYMid meet">
<metadata>
Created by potrace 1.14, written by Peter Selinger 2001-2017
</metadata>
<g transform="translate(0.000000,174.000000) scale(0.100000,-0.100000)"
fill="#000000" stroke="none">
<path d="M944 1344 c1 -47 -1 -87 -5 -90 -3 -2 -25 6 -49 17 -23 11 -52 23
-64 26 -26 7 -654 13 -678 6 -10 -2 -18 -9 -18 -15 0 -6 3 -8 7 -5 4 4 13 -5
20 -20 7 -16 23 -44 34 -63 12 -19 33 -55 47 -80 13 -25 28 -49 33 -54 4 -5
115 -9 246 -9 131 0 248 -4 261 -8 45 -17 49 -95 5 -115 -10 -4 -181 -9 -381
-9 -199 -1 -365 -4 -367 -7 -6 -5 52 -117 89 -174 12 -17 26 -40 32 -50 8 -14
24 -19 58 -20 25 -1 53 -2 61 -3 13 -1 15 -29 15 -186 0 -102 2 -185 5 -185 8
0 104 53 152 83 24 15 46 27 51 27 5 0 16 8 24 18 13 13 16 39 14 120 -1 56 0
106 3 111 3 5 22 11 42 14 33 4 37 1 55 -32 10 -20 45 -81 76 -136 32 -55 59
-104 61 -110 4 -10 245 -18 278 -9 14 4 15 9 5 29 -6 14 -14 25 -18 25 -5 0
-8 7 -8 15 0 8 -4 15 -10 15 -5 0 -10 5 -10 11 0 6 -8 23 -19 37 -10 15 -37
63 -61 106 -40 75 -42 80 -24 93 26 19 44 16 45 -7 2 -23 2 -27 13 -60 18 -58
39 -92 91 -144 52 -52 149 -111 167 -100 4 3 8 1 8 -5 0 -5 8 -10 18 -10 9 0
40 -2 67 -4 28 -2 66 0 85 5 19 5 44 11 55 13 24 6 63 25 90 45 41 31 124 118
118 124 -4 3 -1 6 6 6 7 0 10 4 6 9 -3 5 -1 12 5 16 8 5 23 50 37 110 3 15 7
643 4 702 -1 13 -71 -22 -187 -92 l-59 -35 -1 -274 c-1 -250 -3 -277 -20 -306
-10 -18 -28 -38 -39 -44 -11 -6 -23 -15 -27 -20 -3 -5 -23 -10 -45 -11 -61 -3
-119 34 -141 90 -8 20 -11 113 -11 286 1 141 -2 265 -5 276 -4 12 -14 23 -24
26 -9 3 -60 31 -112 61 -52 31 -97 56 -101 56 -3 0 -6 -39 -5 -86z m177 -104
c0 -8 1 -130 2 -270 l2 -255 27 -45 c71 -121 221 -142 326 -46 59 53 63 77 62
376 l0 245 33 21 c18 12 42 24 54 28 20 6 21 3 21 -38 0 -25 3 -50 7 -56 3 -5
3 -10 -2 -10 -9 0 -8 -123 1 -146 3 -8 2 -14 -2 -14 -9 0 -6 -75 3 -90 3 -6 2
-10 -2 -10 -9 0 -8 -103 1 -126 3 -8 2 -14 -2 -14 -4 0 -8 -9 -8 -20 0 -11 3
-20 7 -20 6 0 -10 -57 -28 -100 -3 -8 -5 -18 -5 -22 1 -5 -2 -8 -7 -8 -5 0
-12 -8 -16 -19 -21 -68 -171 -151 -260 -145 -104 8 -159 29 -221 86 -37 34
-78 104 -90 154 -12 51 -8 132 6 149 8 9 15 22 16 29 1 6 7 32 13 58 11 48 8
108 -8 150 -5 13 -9 26 -10 31 0 4 -7 20 -14 35 -11 21 -17 139 -8 160 4 9
101 -55 102 -68z m-270 -23 c85 -42 141 -131 141 -229 1 -31 -4 -63 -9 -70 -6
-7 -13 -25 -17 -40 -3 -16 -11 -28 -16 -28 -6 0 -10 -5 -10 -11 0 -25 -96 -89
-133 -89 -9 0 -19 -4 -22 -10 -3 -5 -2 -10 4 -10 5 0 13 -10 17 -22 4 -13 20
-42 36 -65 16 -24 26 -43 23 -43 -4 0 4 -14 16 -32 24 -33 59 -98 59 -108 0
-3 -26 -5 -57 -5 -56 1 -57 2 -90 51 -19 27 -52 83 -74 125 -62 118 -53 112
-153 112 -47 0 -88 -2 -91 -4 -2 -3 -5 -62 -6 -132 -1 -98 -5 -131 -16 -142
-8 -9 -19 -13 -24 -10 -5 4 -9 3 -9 -2 0 -11 -44 -30 -58 -25 -9 3 -9 9 -2 23
7 12 7 19 1 19 -10 0 -7 32 4 50 3 6 1 10 -6 10 -9 0 -9 3 0 14 8 10 9 16 1
21 -7 4 -7 12 0 26 8 14 7 19 -2 19 -9 0 -9 3 2 10 9 6 10 10 3 10 -12 0 -10
30 2 50 3 6 1 10 -6 10 -8 0 -9 3 0 13 18 22 -17 43 -69 40 -71 -3 -86 4 -114
51 -14 25 -26 47 -26 50 0 3 139 6 310 6 217 0 317 4 337 12 33 14 83 66 84
88 0 8 2 24 4 36 6 31 -36 106 -70 125 -26 15 -62 18 -267 18 l-237 1 -26 43
c-14 24 -25 49 -25 55 0 8 76 11 278 9 240 -2 282 -5 313 -20z"/>
</g>
</svg>
